<?xml version="1.0" encoding="utf-8"?>
<!-- Generator: Adobe Illustrator 16.0.0, SVG Export Plug-In . SVG Version: 6.00 Build 0)  -->
<!DOCTYPE svg PUBLIC "-//W3C//DTD SVG 1.1//EN" "http://www.w3.org/Graphics/SVG/1.1/DTD/svg11.dtd">
<svg version="1.1" id="Capa_1" xmlns="http://www.w3.org/2000/svg" xmlns:xlink="http://www.w3.org/1999/xlink" x="0px" y="0px"
	 width="512px" height="512px" viewBox="0 0 512 512" enable-background="new 0 0 512 512" xml:space="preserve">
<g>
	<path fill="#006BBD" d="M512,68c0-12.8-8.534-21.333-21.334-21.333H21.333C8.533,46.667,0,55.2,0,68v42.667
		C0,123.467,8.533,132,21.333,132h469.333c12.8,0,21.334-8.533,21.334-21.333V68z"/>
	<path fill="#006BBD" d="M512,238.667c0-12.8-8.534-21.333-21.334-21.333H21.333C8.533,217.334,0,225.867,0,238.667v42.667
		c0,12.8,8.533,21.333,21.333,21.333h469.333c12.8,0,21.334-8.533,21.334-21.333V238.667z"/>
	<path fill="#006BBD" d="M512,409.334c0-12.8-8.534-21.334-21.334-21.334H21.333C8.533,388,0,396.534,0,409.334V452
		c0,12.801,8.533,21.334,21.333,21.334h469.333c12.8,0,21.334-8.533,21.334-21.334V409.334z"/>
</g>
</svg>
