<?xml version="1.0" encoding="iso-8859-1"?>
<!-- Generator: Adobe Illustrator 19.0.0, SVG Export Plug-In . SVG Version: 6.00 Build 0)  -->
<svg version="1.1" id="Capa_1" xmlns="http://www.w3.org/2000/svg" xmlns:xlink="http://www.w3.org/1999/xlink" x="0px" y="0px"
	 viewBox="0 0 512 512" style="enable-background:new 0 0 512 512;" xml:space="preserve">
<g>
	<g>
		<path d="M106,0C64.647,0,31,34.647,31,76c0,41.353,33.647,75,75,75c41.353,0,75-33.647,75-75C181,34.647,147.353,0,106,0z"/>
	</g>
</g>
<g>
	<g>
		<path d="M179.251,151c-18.939,18.499-44.753,30-73.251,30c-28.498,0-54.313-11.501-73.251-30C13.217,170.08,0,196.608,0,226
			c0,8.291,6.709,15,15,15h181c8.291,0,15-6.709,15-15C211,196.608,198.783,170.08,179.251,151z"/>
	</g>
</g>
<g>
	<g>
		<path d="M406,0c-41.353,0-75,34.647-75,76c0,41.353,33.647,75,75,75c41.353,0,75-33.647,75-75C481,34.647,447.353,0,406,0z"/>
	</g>
</g>
<g>
	<g>
		<path d="M479.251,151c-18.938,18.499-44.752,30-73.251,30c-28.499,0-54.313-11.501-73.251-30C313.217,170.08,301,196.608,301,226
			c0,8.291,6.709,15,15,15h181c8.291,0,15-6.709,15-15C512,196.608,498.783,170.08,479.251,151z"/>
	</g>
</g>
<g>
	<g>
		<path d="M256,271c-41.353,0-75,33.647-75,75c0,41.353,33.647,75,75,75c41.353,0,75-33.647,75-75C331,304.647,297.353,271,256,271z
			"/>
	</g>
</g>
<g>
	<g>
		<path d="M329.251,421c-18.938,18.499-44.752,30-73.251,30c-28.499,0-54.313-11.501-73.251-30C163.217,440.08,151,467.608,151,497
			c0,8.291,6.709,15,15,15h180c8.291,0,15-6.709,15-15C361,467.608,348.783,440.08,329.251,421z"/>
	</g>
</g>
<g>
	<g>
		<path d="M301,76c0-2.975,0.635-5.773,0.879-8.687c-30.108-7.09-61.65-7.09-91.758,0C210.365,70.227,211,73.026,211,76
			c0,7.687-0.941,15.135-2.518,22.355c30.851-9.053,64.184-9.053,95.035,0C301.943,91.135,301,83.685,301,76z"/>
	</g>
</g>
<g>
	<g>
		<path d="M420.072,271c-4.472,48.759-30.248,92.342-69.544,119.89c-0.959,2.01-2.097,3.907-3.179,5.847l2.869,2.803
			c5.565,5.435,10.302,11.437,14.782,17.58c48.653-32.919,80.403-86.321,85.056-146.12H420.072z"/>
	</g>
</g>
<g>
	<g>
		<path d="M161.471,390.89C122.176,363.342,96.4,319.759,91.927,271H61.943c4.653,59.799,36.403,113.201,85.056,146.12
			c4.481-6.143,9.218-12.145,14.782-17.58l2.869-2.803C163.568,394.798,162.431,392.901,161.471,390.89z"/>
	</g>
</g>
<g>
</g>
<g>
</g>
<g>
</g>
<g>
</g>
<g>
</g>
<g>
</g>
<g>
</g>
<g>
</g>
<g>
</g>
<g>
</g>
<g>
</g>
<g>
</g>
<g>
</g>
<g>
</g>
<g>
</g>
</svg>
