<?xml version="1.0" encoding="utf-8"?>
<!-- Generator: Adobe Illustrator 16.0.0, SVG Export Plug-In . SVG Version: 6.00 Build 0)  -->
<!DOCTYPE svg PUBLIC "-//W3C//DTD SVG 1.1//EN" "http://www.w3.org/Graphics/SVG/1.1/DTD/svg11.dtd">
<svg version="1.1" id="Capa_1" xmlns="http://www.w3.org/2000/svg" xmlns:xlink="http://www.w3.org/1999/xlink" x="0px" y="0px"
	 width="841.889px" height="595.281px" viewBox="0 0 841.889 595.281" enable-background="new 0 0 841.889 595.281"
	 xml:space="preserve">
<g>
	<g>
		<path fill="#08304D" d="M246.546,0c-48.079,0-87.199,40.283-87.199,88.362s39.12,87.199,87.199,87.199s87.199-39.12,87.199-87.199
			S294.625,0,246.546,0z"/>
	</g>
</g>
<g>
	<g>
		<path fill="#08304D" d="M331.712,175.561c-22.02,21.508-52.032,34.88-85.166,34.88c-33.133,0-63.147-13.372-85.166-34.88
			c-22.709,22.184-38.075,53.026-38.075,87.199c0,9.64,7.8,17.439,17.439,17.439h210.441c9.64,0,17.439-7.8,17.439-17.439
			C368.625,228.588,354.421,197.745,331.712,175.561z"/>
	</g>
</g>
<g>
	<g>
		<path fill="#08304D" d="M595.343,0c-48.079,0-87.199,40.283-87.199,88.362s39.12,87.199,87.199,87.199s87.199-39.12,87.199-87.199
			S643.422,0,595.343,0z"/>
	</g>
</g>
<g>
	<g>
		<path fill="#08304D" d="M680.509,175.561c-22.019,21.508-52.031,34.88-85.166,34.88s-63.147-13.372-85.166-34.88
			c-22.709,22.184-36.913,53.026-36.913,87.199c0,9.64,7.801,17.439,17.44,17.439h210.44c9.64,0,17.439-7.8,17.439-17.439
			C718.584,228.588,703.218,197.745,680.509,175.561z"/>
	</g>
</g>
<g>
	<g>
		<path fill="#08304D" d="M420.945,315.08c-48.079,0-87.199,39.12-87.199,87.199c0,48.08,39.12,87.199,87.199,87.199
			s87.199-39.119,87.199-87.199C508.144,354.2,469.024,315.08,420.945,315.08z"/>
	</g>
</g>
<g>
	<g>
		<path fill="#08304D" d="M506.111,489.478c-22.019,21.509-52.031,34.88-85.166,34.88s-63.147-13.371-85.166-34.88
			c-22.709,22.184-36.913,54.189-36.913,88.362c0,9.64,7.801,17.44,17.44,17.44h209.277c9.64,0,17.44-7.801,17.44-17.44
			C543.024,543.668,528.82,511.662,506.111,489.478z"/>
	</g>
</g>
<g>
	<g>
		<path fill="#08304D" d="M473.264,88.362c0-3.459,0.738-6.712,1.022-10.101c-35.006-8.243-71.678-8.243-106.683,0
			c0.283,3.389,1.021,6.643,1.021,10.101c0,8.938-1.094,17.597-2.928,25.991c35.869-10.525,74.624-10.525,110.493,0
			C474.361,105.959,473.264,97.297,473.264,88.362z"/>
	</g>
</g>
<g>
	<g>
		<path fill="#08304D" d="M611.704,315.08c-5.2,56.69-35.168,107.362-80.856,139.392c-1.115,2.337-2.438,4.542-3.695,6.798
			l3.335,3.259c6.471,6.319,11.978,13.298,17.187,20.439c56.566-38.273,93.481-100.361,98.891-169.888H611.704z"/>
	</g>
</g>
<g>
	<g>
		<path fill="#08304D" d="M311.04,454.471c-45.687-32.029-75.655-82.701-80.856-139.392h-34.86
			c5.409,69.526,42.324,131.614,98.891,169.888c5.21-7.142,10.718-14.12,17.187-20.439l3.336-3.259
			C313.478,459.014,312.156,456.809,311.04,454.471z"/>
	</g>
</g>
</svg>
