<?xml version="1.0" encoding="utf-8"?>
<!-- Generator: Adobe Illustrator 16.0.0, SVG Export Plug-In . SVG Version: 6.00 Build 0)  -->
<!DOCTYPE svg PUBLIC "-//W3C//DTD SVG 1.1//EN" "http://www.w3.org/Graphics/SVG/1.1/DTD/svg11.dtd">
<svg version="1.1" id="Capa_1" xmlns="http://www.w3.org/2000/svg" xmlns:xlink="http://www.w3.org/1999/xlink" x="0px" y="0px"
	 width="400.002px" height="400.002px" viewBox="0 0 400.002 400.002" enable-background="new 0 0 400.002 400.002"
	 xml:space="preserve">
<g>
	<g>
		<g>
			<path fill="#08304D" d="M200.012,105.625c-27.538,0-42.778,14.271-42.5,41.768c0.402,37.658,16.405,60.504,42.5,60.105
				c0,0,42.479,1.723,42.479-60.105C242.49,119.895,228.141,105.625,200.012,105.625z"/>
			<path fill="#08304D" d="M347.671,305.49c-5.518,0-10.81,0.955-15.729,2.69l-20.568-20.567
				c19.024-24.133,30.392-54.569,30.392-87.614s-11.364-63.48-30.392-87.615l20.568-20.567c4.921,1.737,10.213,2.691,15.729,2.691
				c26.1,0,47.253-21.155,47.253-47.256C394.924,21.156,373.77,0,347.671,0c-26.097,0-47.256,21.156-47.256,47.253
				c0,5.519,0.955,10.81,2.692,15.731l-21.299,21.299c-23.132-16.396-51.361-26.047-81.811-26.047
				c-30.447,0-58.679,9.649-81.809,26.047L96.892,62.984c1.736-4.922,2.691-10.213,2.691-15.731C99.584,21.156,78.425,0,52.328,0
				S5.076,21.156,5.076,47.253c0,26.102,21.156,47.256,47.253,47.256c5.519,0,10.811-0.954,15.731-2.691l20.567,20.568
				C69.604,136.519,58.237,166.955,58.237,200s11.366,63.48,30.391,87.615L68.06,308.183c-4.921-1.737-10.213-2.691-15.731-2.691
				c-26.098,0-47.253,21.155-47.253,47.257c0,26.098,21.156,47.254,47.253,47.254s47.256-21.156,47.256-47.254
				c0-5.521-0.955-10.811-2.691-15.729l21.298-21.3c23.13,16.396,51.362,26.047,81.809,26.047c30.447,0,58.681-9.647,81.811-26.047
				l21.299,21.3c-1.737,4.923-2.692,10.214-2.692,15.729c0,26.098,21.159,47.254,47.256,47.254c26.1,0,47.254-21.156,47.254-47.254
				C394.924,326.646,373.769,305.49,347.671,305.49z M288.158,273.062c-1.585-15.338-4.884-33.75-13.01-36.98l-42.445-16.923
				l-9.938-8.376c-2.625-2.218-6.502-2.057-8.938,0.366l-13.818,13.741l-13.858-13.746c-2.438-2.418-6.31-2.573-8.932-0.361
				l-9.939,8.376l-42.446,16.925c-8.122,3.235-11.414,21.641-12.994,36.975c-16.448-19.823-26.339-45.284-26.339-73.058
				c0-63.235,51.265-114.5,114.5-114.5c63.236,0,114.5,51.265,114.5,114.5C314.499,227.773,304.607,253.236,288.158,273.062z"/>
		</g>
	</g>
</g>
</svg>
